<?xml version="1.0" standalone="no"?><!DOCTYPE svg PUBLIC "-//W3C//DTD SVG 1.1//EN" "http://www.w3.org/Graphics/SVG/1.1/DTD/svg11.dtd"><svg t="1700627755141" class="icon" viewBox="0 0 1024 1024" version="1.1" xmlns="http://www.w3.org/2000/svg" p-id="4020" xmlns:xlink="http://www.w3.org/1999/xlink" width="200" height="200"><path d="M192 192l384 0 0 64-384 0 0-64Z" fill="#666666" p-id="4021"></path><path d="M192 384l384 0 0 64-384 0 0-64Z" fill="#666666" p-id="4022"></path><path d="M192 576l384 0 0 64-384 0 0-64Z" fill="#666666" p-id="4023"></path><path d="M192 768l384 0 0 64-384 0 0-64Z" fill="#666666" p-id="4024"></path><path d="M832 256l-128 0L704 192c0 0 0-64 64-64s64 64 64 64L832 256z" fill="#666666" p-id="4025"></path><path d="M704 320l128 0 0 320-128 0 0-320Z" fill="#666666" p-id="4026"></path><path d="M832 832 768 896 704 832 704 704 832 704Z" fill="#666666" p-id="4027"></path><path d="M64 0l0 1024 896 0L960 0 64 0zM930.688 989.312 96 989.312l0-960 834.688 0L930.688 989.312z" fill="#666666" p-id="4028"></path></svg>